<svg width="40" height="60" viewBox="0 0 40 60" fill="none" xmlns="http://www.w3.org/2000/svg">
<path d="M39.9168 26.085C39.7222 25.4333 39.2235 25 38.6662 25H22.5663L31.8529 2.43C32.1449 1.72 31.9942 0.851667 31.4916 0.358333C31.2489 0.118333 30.9569 0 30.6662 0C30.3556 0 30.0449 0.136667 29.7956 0.405L19.9996 10.98L0.462445 32.0717C0.041115 32.5267 -0.110884 33.2617 0.0837815 33.9133C0.278447 34.565 0.775777 35 1.33311 35H17.433L8.14639 57.57C7.85439 58.28 8.00506 59.1483 8.50772 59.6417C8.75039 59.8817 9.04239 60 9.33305 60C9.64371 60 9.95438 59.8633 10.2037 59.595L19.9996 49.02L39.5368 27.9283C39.9595 27.4733 40.1102 26.7383 39.9168 26.085Z" fill="#FFAC33"/>
</svg>
