<svg width="33" height="28" viewBox="0 0 33 28" fill="none" xmlns="http://www.w3.org/2000/svg">
<g filter="url(#filter0_di_1_172)">
<path d="M27.657 11C27.6634 10.8897 27.6666 10.7786 27.6666 10.6667C27.6666 7.53705 25.1296 5 22 5C20.494 5 19.1253 5.58746 18.1104 6.54572C17.597 6.40721 17.0571 6.33333 16.5 6.33333C14.4849 6.33333 12.6955 7.29989 11.5702 8.79469C11.2272 8.71102 10.8688 8.66666 10.5 8.66666C8.01471 8.66666 6 10.6814 6 13.1667C6 13.1782 6.00004 13.1898 6.00012 13.2014C6.00004 13.2095 6 13.2176 6 13.2258C6 16.2307 8.43595 18.6667 11.4409 18.6667H20C24.2342 18.6667 27.6666 15.2342 27.6666 11H27.657Z" fill="white"/>
<path d="M27.657 11C27.6634 10.8897 27.6666 10.7786 27.6666 10.6667C27.6666 7.53705 25.1296 5 22 5C20.494 5 19.1253 5.58746 18.1104 6.54572C17.597 6.40721 17.0571 6.33333 16.5 6.33333C14.4849 6.33333 12.6955 7.29989 11.5702 8.79469C11.2272 8.71102 10.8688 8.66666 10.5 8.66666C8.01471 8.66666 6 10.6814 6 13.1667C6 13.1782 6.00004 13.1898 6.00012 13.2014C6.00004 13.2095 6 13.2176 6 13.2258C6 16.2307 8.43595 18.6667 11.4409 18.6667H20C24.2342 18.6667 27.6666 15.2342 27.6666 11H27.657Z" fill="url(#paint0_radial_1_172)" fill-opacity="0.2"/>
</g>
<defs>
<filter id="filter0_di_1_172" x="0.666673" y="3" width="32.3333" height="24.3333" filterUnits="userSpaceOnUse" color-interpolation-filters="sRGB">
<feFlood flood-opacity="0" result="BackgroundImageFix"/>
<feColorMatrix in="SourceAlpha" type="matrix" values="0 0 0 0 0 0 0 0 0 0 0 0 0 0 0 0 0 0 127 0" result="hardAlpha"/>
<feOffset dy="3.33333"/>
<feGaussianBlur stdDeviation="2.66666"/>
<feComposite in2="hardAlpha" operator="out"/>
<feColorMatrix type="matrix" values="0 0 0 0 0.301961 0 0 0 0 0.368627 0 0 0 0 0.435294 0 0 0 0.08 0"/>
<feBlend mode="normal" in2="BackgroundImageFix" result="effect1_dropShadow_1_172"/>
<feBlend mode="normal" in="SourceGraphic" in2="effect1_dropShadow_1_172" result="shape"/>
<feColorMatrix in="SourceAlpha" type="matrix" values="0 0 0 0 0 0 0 0 0 0 0 0 0 0 0 0 0 0 127 0" result="hardAlpha"/>
<feOffset/>
<feGaussianBlur stdDeviation="0.999999"/>
<feComposite in2="hardAlpha" operator="arithmetic" k2="-1" k3="1"/>
<feColorMatrix type="matrix" values="0 0 0 0 0.301961 0 0 0 0 0.368627 0 0 0 0 0.435294 0 0 0 0.08 0"/>
<feBlend mode="normal" in2="shape" result="effect2_innerShadow_1_172"/>
</filter>
<radialGradient id="paint0_radial_1_172" cx="0" cy="0" r="1" gradientUnits="userSpaceOnUse" gradientTransform="translate(21.1667 6.33333) rotate(121.827) scale(17.066 27.0559)">
<stop stop-opacity="0"/>
<stop offset="1" stop-color="#4D5E6F"/>
</radialGradient>
</defs>
</svg>
