<svg width="25" height="25" viewBox="0 0 25 25" fill="none" xmlns="http://www.w3.org/2000/svg">
<path d="M12.1795 7.5C13.5075 7.5 14.7811 8.02678 15.7202 8.96447C16.6593 9.90215 17.1868 11.1739 17.1868 12.5C17.1868 13.8261 16.6593 15.0979 15.7202 16.0355C14.7811 16.9732 13.5075 17.5 12.1795 17.5C10.8515 17.5 9.57783 16.9732 8.63877 16.0355C7.69972 15.0979 7.17216 13.8261 7.17216 12.5C7.17216 11.1739 7.69972 9.90215 8.63877 8.96447C9.57783 8.02678 10.8515 7.5 12.1795 7.5ZM12.1795 10C11.5155 10 10.8787 10.2634 10.4091 10.7322C9.9396 11.2011 9.67582 11.837 9.67582 12.5C9.67582 13.163 9.9396 13.7989 10.4091 14.2678C10.8787 14.7366 11.5155 15 12.1795 15C12.8435 15 13.4803 14.7366 13.9498 14.2678C14.4194 13.7989 14.6832 13.163 14.6832 12.5C14.6832 11.837 14.4194 11.2011 13.9498 10.7322C13.4803 10.2634 12.8435 10 12.1795 10ZM9.67582 25C9.36287 25 9.09998 24.775 9.04991 24.475L8.58673 21.1625C7.79808 20.85 7.12209 20.425 6.47113 19.925L3.35407 21.1875C3.07867 21.2875 2.74068 21.1875 2.59046 20.9125L0.0867915 16.5875C-0.0759467 16.3125 -0.000836602 15.975 0.237011 15.7875L2.87838 13.7125L2.79075 12.5L2.87838 11.25L0.237011 9.2125C-0.000836602 9.025 -0.0759467 8.6875 0.0867915 8.4125L2.59046 4.0875C2.74068 3.8125 3.07867 3.7 3.35407 3.8125L6.47113 5.0625C7.12209 4.575 7.79808 4.15 8.58673 3.8375L9.04991 0.525C9.09998 0.225 9.36287 0 9.67582 0H14.6832C14.9961 0 15.259 0.225 15.3091 0.525L15.7722 3.8375C16.5609 4.15 17.2369 4.575 17.8878 5.0625L21.0049 3.8125C21.2803 3.7 21.6183 3.8125 21.7685 4.0875L24.2722 8.4125C24.4349 8.6875 24.3598 9.025 24.122 9.2125L21.4806 11.25L21.5682 12.5L21.4806 13.75L24.122 15.7875C24.3598 15.975 24.4349 16.3125 24.2722 16.5875L21.7685 20.9125C21.6183 21.1875 21.2803 21.3 21.0049 21.1875L17.8878 19.9375C17.2369 20.425 16.5609 20.85 15.7722 21.1625L15.3091 24.475C15.259 24.775 14.9961 25 14.6832 25H9.67582ZM11.2406 2.5L10.7774 5.7625C9.27524 6.075 7.9483 6.875 6.98439 7.9875L3.96747 6.6875L3.0286 8.3125L5.66996 10.25C5.16923 11.7125 5.16923 13.3 5.66996 14.75L3.01608 16.7L3.95495 18.325L6.9969 17.025C7.96081 18.125 9.27524 18.925 10.7649 19.225L11.2281 22.5H13.1309L13.5941 19.2375C15.0837 18.925 16.3982 18.125 17.3621 17.025L20.404 18.325L21.3429 16.7L18.689 14.7625C19.1897 13.3 19.1897 11.7125 18.689 10.25L21.3304 8.3125L20.3915 6.6875L17.3746 7.9875C16.4107 6.875 15.0837 6.075 13.5815 5.775L13.1184 2.5H11.2406Z" fill="#355CE6"/>
</svg>
